<svg xmlns="http://www.w3.org/2000/svg" xmlns:xlink="http://www.w3.org/1999/xlink" xmlns:inkscape="http://www.inkscape.org/namespaces/inkscape" version="1.1" width="138.816" height="60.858" viewBox="0 0 138.816 60.858">
<defs>
<path id="font_1_1" d="M.31300355 .79100039C.26567079 .722997 .23133342 .65516158 .20999146 .5874939 .18865967 .51982626 .17799378 .44066368 .17799378 .3500061 .17799378 .25933839 .18865967 .1801707 .20999146 .11250305 .23133342 .044835409 .26567079-.023000082 .31300355-.09100342L.21200562-.15899658C.16867066-.09899902 .13400269-.047164918 .10800171-.0034942628 .08200073 .040166219 .0605011 .09132894 .043502809 .1499939 .026504517 .20866902 .018005372 .27533976 .018005372 .3500061 .018005372 .42467246 .026504517 .4913381 .043502809 .55000308 .0605011 .608668 .08200073 .65983077 .10800171 .7034912 .13400269 .74716189 .16867066 .798996 .21200562 .85899356L.31300355 .79100039Z"/>
<path id="font_1_2" d="M.48399354 .15400696C.48399354 .1339976 .48682658 .11932373 .49249269 .10998535 .49816896 .10065714 .5073395 .093663539 .5200043 .08900452L.4869995-.014007568C.45433555-.011332194 .42766825-.0041656496 .40699769 .0074920656 .38633729 .019159953 .3703359 .037663778 .35899354 .06300354 .32433573 .009668986 .27100627-.016998291 .19900513-.016998291 .14633179-.016998291 .10432943-.0016682943 .07299805 .0289917 .041666669 .059661867 .026000977 .09966532 .026000977 .14900208 .026000977 .20699565 .047332765 .2513275 .08999634 .28199769 .13267009 .31266786 .19433594 .32800294 .2749939 .32800294H.32899476V.35099793C.32899476 .38232932 .32232667 .40382896 .30899049 .41549684 .29566447 .4271647 .27233378 .43299867 .23899842 .43299867 .22166443 .43299867 .20066326 .43049623 .17599488 .42549134 .15133667 .4204966 .12600708 .41366578 .1000061 .40499879L.06399536 .5090027C.09733073 .5216675 .13149517 .53133139 .16648865 .5379944 .20149231 .54466757 .23399861 .54800418 .26400758 .54800418 .3400065 .54800418 .39567057 .5323334 .43099977 .5009918 .46632896 .46966044 .48399354 .42266337 .48399354 .3600006V.15400696M.24499512 .09599304C.2809957 .09599304 .30899558 .11299642 .32899476 .14700318V.24099732H.2899933C.2539927 .24099732 .2271576 .23466492 .20948792 .22200012 .19182842 .20933533 .18299866 .18966675 .18299866 .16299439 .18299866 .1416626 .1884969 .12516277 .19949341 .11349487 .21050008 .10182699 .22566732 .09599304 .24499512 .09599304Z"/>
<path id="font_1_3" d="M.11300659 .85899356C.15633138 .7983348 .19082642 .7463379 .2164917 .7030029 .24216716 .65966799 .26350404 .608668 .28050233 .55000308 .2975006 .4913381 .30599977 .42467246 .30599977 .3500061 .30599977 .27533976 .2975006 .20866902 .28050233 .1499939 .26350404 .09132894 .24216716 .040334066 .2164917-.0029907227 .19082642-.046325685 .15633138-.09832764 .11300659-.15899658L.011993408-.09100342C.059326173-.022338868 .09365845 .04582723 .114990238 .11349487 .1363322 .18116252 .14700318 .2599996 .14700318 .3500061 .14700318 .44000245 .1363322 .5188344 .114990238 .5865021 .09365845 .65416976 .059326173 .7223358 .011993408 .79100039L.11300659 .85899356Z"/>
<path id="font_1_4" d=""/>
<path id="font_1_5" d="M.753006 0H.59199526L.58000186 .2709961C.5766652 .33566285 .57499697 .3933309 .57499697 .44400025 .57499697 .48266603 .57599899 .5193329 .5780029 .55400088L.47099305 .07299805H.31599427L.20199585 .55400088C.20599365 .4959971 .20799256 .44132997 .20799256 .3899994 .20799256 .35133363 .20699565 .31099955 .20500183 .2689972L.19299317 0H.03300476L.085006717 .69299319H.29200746L.3959961 .2230072 .49299623 .69299319H.701004L.753006 0Z"/>
<path id="font_1_6" d="M.3730011 .54800418C.41900126 .54800418 .45500184 .53400167 .4810028 .5059967 .5070038 .47800193 .5200043 .43866984 .5200043 .3880005V0H.3619995V.36099244C.3619995 .3876648 .35783387 .4061686 .34950257 .4165039 .34117127 .4268392 .32866923 .43200685 .31199647 .43200685 .28000389 .43200685 .24933879 .40900675 .22000122 .3630066V0H.06199646V.53100588H.19999695L.21099854 .46800233C.23366292 .49466453 .25816346 .5146637 .28450013 .5279999 .3108368 .54133608 .34033714 .54800418 .3730011 .54800418Z"/>
<path id="font_1_7" d="M.35499574-.0010070801C.33366395-.06967163 .29882813-.12250265 .25048829-.15950012 .20215862-.1964976 .1373291-.21733094 .055999757-.22200012L.039001466-.11099243C.089670818-.10432943 .12717183-.09299723 .15150452-.07699585 .1758372-.060994466 .19533794-.03532918 .21000672 0H.15600586L-.005996704 .53100588H.16200257L.25700379 .100997928 .36099244 .53100588H.5240021L.35499574-.0010070801Z"/>
<path id="font_1_8" d="M.2290039 .69299319V0H.06500244V.69299319H.2290039Z"/>
<path id="font_1_9" d="M.3619995 .54800418C.42867027 .54800418 .47833763 .52333578 .5110016 .47399903 .5436656 .42466227 .55999758 .35566203 .55999758 .2669983 .55999758 .21233113 .5514984 .16349793 .5345001 .12049866 .51750186 .07749939 .4930013 .043833417 .46099855 .019500733 .42899577-.0048319499 .3916626-.016998291 .34899903-.016998291 .29566447-.016998291 .2526652 .001332601 .22000122 .037994386V-.20500183L.06199646-.22200012V.53100588H.20100403L.20899964 .47200013C.22967021 .4980011 .25333659 .51716616 .27999879 .52949526 .30667115 .54183456 .33400474 .54800418 .3619995 .54800418M.30099488 .09899902C.364329 .09899902 .3959961 .15433248 .3959961 .2649994 .3959961 .32766215 .3889974 .37115989 .375 .39549256 .3610026 .41983543 .34000144 .43200685 .31199647 .43200685 .29400126 .43200685 .2771708 .42667137 .26150514 .41600038 .24583943 .40532939 .2320048 .3899943 .22000122 .36999513V.1459961C.24133301 .11466471 .2683309 .09899902 .30099488 .09899902Z"/>
<path id="font_1_10" d="M.5099945 0H.3730011L.3659973 .06700134C.32733155 .011001587 .27366639-.016998291 .20500183-.016998291 .15633647-.016998291 .11950175-.0023345948 .09449768 .026992798 .069503787 .056330366 .057006837 .09733073 .057006837 .1499939V.53100588H.21499634V.16999817C.21499634 .14399719 .21916199 .12582906 .22749329 .115493778 .23583476 .10516866 .24867249 .1000061 .26600648 .1000061 .29933167 .1000061 .32799784 .12067159 .352005 .16200257V.53100588H.5099945V0Z"/>
<path id="font_1_11" d="M.39500428 .024993897C.3756663 .011667888 .35316468 .0013376871 .3274994-.005996704 .3018341-.013331096 .27633668-.016998291 .25100709-.016998291 .13499959-.016337077 .07699585 .047663373 .07699585 .17500305V.42100526H.0019989014V.53100588H.07699585V.6459961L.23500061 .66400149V.53100588H.35699464L.33999635 .42100526H.23500061V.17700196C.23500061 .15233357 .23899842 .1346639 .24699402 .12399292 .2549998 .113332118 .26766969 .10800171 .28500367 .10800171 .30299888 .10800171 .32199607 .11366781 .34199525 .125L.39500428 .024993897Z"/>
<path id="font_1_12" d="M.58399966 .69299319 .39100648 0H.18699646L-.013000488 .69299319H.16000366L.29200746 .12800598 .41600038 .69299319H.58399966Z"/>
<path id="font_1_13" d="M.22000122 .53100588V0H.06199646V.53100588H.22000122M.14001465 .81100466C.16734822 .81100466 .18984477 .8025004 .20750427 .78549197 .22517395 .76849368 .23400879 .746994 .23400879 .72099307 .23400879 .69500228 .22517395 .6735026 .20750427 .65649417 .18984477 .63949587 .16734822 .6309967 .14001465 .6309967 .11268107 .6309967 .09034729 .63949587 .073013309 .65649417 .05567932 .6735026 .04701233 .69500228 .04701233 .72099307 .04701233 .746994 .05567932 .76849368 .073013309 .78549197 .09034729 .8025004 .11268107 .81100466 .14001465 .81100466Z"/>
<path id="font_1_14" d="M.5249939 .27600099C.5249939 .2539978 .523997 .23499553 .5220032 .21899414H.19299317C.19833374 .17432659 .21100362 .1429952 .23100281 .125 .25100199 .1070048 .27866618 .0980072 .31399537 .0980072 .33532716 .0980072 .35599265 .10183716 .37599183 .10949707 .3960012 .11716715 .41766868 .12900289 .44099427 .14500427L.5059967 .057006837C.44399516 .0076700847 .3749949-.016998291 .29899598-.016998291 .21299744-.016998291 .14699809 .008331299 .100997928 .05899048 .05499776 .10965983 .03199768 .17766316 .03199768 .2630005 .03199768 .31699626 .04166158 .36549378 .06098938 .40849305 .080327358 .45150248 .108662929 .48550416 .1459961 .51049807 .18332927 .53550216 .22799683 .54800418 .27999879 .54800418 .3566691 .54800418 .41666667 .5240021 .45999146 .47599793 .5033264 .42800395 .5249939 .3613383 .5249939 .27600099M.36999513 .32099916C.3686625 .4023285 .33999635 .44299317 .28399659 .44299317 .256663 .44299317 .23549398 .43299357 .2204895 .41299439 .2054952 .3929952 .19632976 .3599955 .19299317 .31399537H.36999513V.32099916Z"/>
<path id="font_1_15" d="M.7440033 .53100588 .6340027 0H.44500733L.37399293 .3899994 .30400086 0H.117004398L.0039978029 .53100588H.16400147L.21899414 .117996219 .30200196 .53100588H.45599366L.52900698 .117996219 .5930023 .53100588H.7440033Z"/>
<path id="font_1_16" d="M.24899292 .54800418C.28699748 .54800418 .32266746 .5423381 .3560028 .53100588 .38933818 .51967367 .41867066 .5036723 .44400025 .4830017L.3860016 .3939972C.34266664 .42133079 .29900108 .43499757 .25500489 .43499757 .2343343 .43499757 .21849568 .4314982 .20748902 .4244995 .19649251 .41750083 .19099427 .40766908 .19099427 .39500428 .19099427 .38500468 .19349163 .37683616 .19848633 .37049867 .20349121 .36416117 .21365865 .35766093 .22898865 .35099793 .24432881 .34433494 .26800028 .33633424 .30000306 .32699586 .35533143 .31099449 .39649455 .29016114 .42349244 .26449586 .4505005 .23883057 .46400453 .20333354 .46400453 .15800476 .46400453 .12200419 .45366923 .09083557 .43299867 .0644989 .4123281 .03816223 .38399253 .0179952 .34799195 .0039978029 .31200157-.009999593 .27200318-.016998291 .22799683-.016998291 .18332927-.016998291 .14183045-.009999593 .103500369 .0039978029 .06517029 .0179952 .032669069 .037328084 .005996704 .06199646L.08299255 .147995C.12766011 .11332703 .17466228 .09599304 .22399903 .09599304 .24799602 .09599304 .26682536 .10032654 .28048707 .10899353 .29415895 .11766052 .30099488 .1299947 .30099488 .1459961 .30099488 .15866089 .29832969 .16866048 .29299928 .17599488 .28766886 .18332927 .2773336 .19016011 .2619934 .19648743 .2466634 .2028249 .22233074 .21066284 .18899536 .22000122 .1363322 .23533122 .09700012 .256663 .070999149 .28399659 .04499817 .31133018 .03199768 .34533183 .03199768 .3860016 .03199768 .41667176 .04083252 .4441732 .058502199 .46850587 .076171878 .49283854 .10150655 .51217147 .13450623 .5265045 .1675059 .5408376 .20566814 .54800418 .24899292 .54800418Z"/>
<path id="font_1_17" d="M.3630066 .54800418C.42633058 .54800418 .47499085 .5231679 .5089874 .47349549 .5429942 .42383323 .55999758 .3543345 .55999758 .2649994 .55999758 .21033223 .5514984 .16166179 .5345001 .11898804 .51750186 .07632446 .49316917 .042994184 .46150209 .018997193 .429835-.0049997966 .39233399-.016998291 .34899903-.016998291 .32033286-.016998291 .29416404-.011001587 .27049256 .0009918213 .24683126 .012995402 .22666931 .029663086 .21000672 .050994874L.20199585 0H.06199646V.7420044L.22000122 .7590027V.477005C.23600261 .49899803 .25650025 .5163269 .28149415 .5289917 .3064982 .5416667 .33366905 .54800418 .3630066 .54800418M.30299378 .0980072C.36499534 .0980072 .3959961 .15367127 .3959961 .2649994 .3959961 .32833354 .3886617 .3719991 .37399293 .3959961 .35933433 .42000328 .33800254 .43200685 .30999757 .43200685 .27466838 .43200685 .2446696 .41133628 .22000122 .36999513V.14900208C.23000081 .13300069 .24216716 .12049866 .25650025 .11149597 .27083335 .102503459 .28633119 .0980072 .30299378 .0980072Z"/>
<path id="font_1_18" d="M.28799439 .7100067C.33999635 .7100067 .38516236 .7026723 .42349244 .68800356 .46183268 .6733348 .4966685 .651001 .5279999 .6210022L.45199586 .5319977C.4046631 .57066348 .3539988 .58999636 .30000306 .58999636 .27133689 .58999636 .2486674 .5841624 .23199463 .5724945 .21533203 .5608266 .20700073 .54399618 .20700073 .5220032 .20700073 .506663 .21066793 .49416099 .21800232 .48449708 .22533672 .47483317 .2383372 .46566773 .25700379 .45700074 .27567039 .44833375 .30367027 .43799845 .34100343 .42599488 .41167198 .40333048 .46366883 .37549845 .49699403 .34249879 .5303294 .3094991 .5469971 .2626648 .5469971 .20199585 .5469971 .15866089 .5359955 .12049357 .5139923 .0874939 .4919993 .05449422 .46033225 .02882894 .4189911 .010498047 .37766014-.007832845 .32866416-.016998291 .27200318-.016998291 .21533203-.016998291 .16516114-.008000691 .12149048 .009994507 .077829997 .027999878 .040334066 .052001954 .009002686 .08200073L.09199524 .17300415C.1186676 .15033977 .14616902 .13333638 .17449951 .12199402 .20283 .11066183 .23366292 .10499573 .2669983 .10499573 .30099488 .10499573 .32782493 .11249288 .3474884 .12748719 .36716209 .14249166 .3769989 .16333008 .3769989 .19000244 .3769989 .20733643 .3733317 .22183736 .3659973 .23350525 .35866294 .24517314 .34599305 .25567118 .32798768 .2649994 .30999247 .27433778 .28399659 .28433738 .25 .29499818 .17332967 .31833396 .11882528 .34700013 .08648682 .3809967 .054158529 .41500346 .037994386 .45800273 .037994386 .5099945 .037994386 .55000308 .04866028 .5851695 .069992069 .6154938 .09133402 .64582827 .1210022 .669164 .15899658 .6855011 .19700115 .7018382 .24000041 .7100067 .28799439 .7100067Z"/>
<path id="font_1_19" d="M.5509949 .5C.5163269 .4860026 .46532694 .4790039 .397995 .4790039 .43266297 .4643351 .45799766 .44633485 .47399903 .42500306 .4900004 .40367127 .4980011 .37600199 .4980011 .34199525 .4980011 .30799867 .4889984 .27750144 .47099305 .25050355 .45299784 .22350566 .4271647 .20233663 .39349366 .18699646 .35983277 .17166646 .32033286 .16400147 .2749939 .16400147 .2536621 .16400147 .23333232 .16600037 .21400452 .16999817 .20866394 .16733296 .20449321 .16316732 .20149231 .15750122 .19850159 .15183513 .19700623 .14600118 .19700623 .13999939 .19700623 .1299998 .20083618 .122166957 .2084961 .116500858 .21616619 .110834758 .23166912 .10800171 .25500489 .10800171H.3350067C.3756663 .10800171 .41133119 .10133362 .44200135 .08799744 .4726715 .074661258 .4963379 .056325277 .5130005 .032989503 .5296631 .009663899 .5379944-.016667685 .5379944-.04600525 .5379944-.10133362 .51416018-.14449565 .4664917-.17549134 .4188334-.20649719 .350001-.22200012 .2599945-.22200012 .19532776-.22200012 .1443278-.21516419 .10699463-.20149231 .06966146-.18783061 .043492635-.16866558 .02848816-.14399719 .0134938559-.11932882 .005996704-.08832804 .005996704-.050994874H.147995C.147995-.066996257 .15116374-.07966105 .15750122-.08898926 .1638387-.09832764 .17533875-.10533142 .19200135-.11000061 .20866394-.1146698 .23266602-.117004398 .26400758-.117004398 .30733238-.117004398 .33732606-.111836757 .35398866-.101501468 .3706614-.091166179 .3789978-.07633463 .3789978-.057006837 .3789978-.04100545 .3726654-.028335572 .3600006-.018997193 .34733583-.009668986 .32833354-.005004883 .30299378-.005004883H.22599793C.17133077-.005004883 .13049825 .0048268639 .103500369 .024490357 .07650248 .04416402 .06300354 .06933594 .06300354 .1000061 .06300354 .1193339 .06866964 .13816326 .08000183 .15649414 .09133402 .1748352 .106669109 .19000244 .12600708 .20199585 .092671718 .22000122 .06850179 .24117024 .053497316 .26550294 .03850301 .2898356 .03100586 .31933595 .03100586 .3540039 .03100586 .41333009 .052337648 .460495 .09500122 .49549867 .1376648 .5305023 .19400025 .54800418 .26400758 .54800418 .31733195 .54667159 .3624929 .55200198 .39949037 .56399539 .43649803 .57599899 .4746704 .59366866 .51400759 .6170044L.5509949 .5M.26800538 .44400025C.24333699 .44400025 .22383626 .4361674 .20950318 .4205017 .19517009 .40483604 .18800354 .3833364 .18800354 .3560028 .18800354 .32733665 .19517009 .30517069 .20950318 .289505 .22383626 .27383933 .24333699 .26600648 .26800538 .26600648 .29400636 .26600648 .31383769 .27367149 .3274994 .28900147 .34117127 .30433146 .3480072 .32733155 .3480072 .3580017 .3480072 .41533409 .32133994 .44400025 .26800538 .44400025Z"/>
<path id="font_1_20" d="M.20300293-.016998291C.15700276-.016998291 .121170047-.0038350423 .09550476 .022491456 .06983948 .048828126 .057006837 .08632914 .057006837 .1349945V.7420044L.21499634 .7590027V.14100647C.21499634 .119003299 .22399903 .10800171 .2420044 .10800171 .2513326 .10800171 .2599996 .109670009 .26800538 .11300659L.29899598 .0010070801C.2703298-.010996501 .23833211-.016998291 .20300293-.016998291Z"/>
<path id="font_2_1" d="M.19500733 .68899539V0H.1000061V.68899539H.19500733Z"/>
<path id="font_2_2" d="M.34300233 .53900149C.3909963 .53900149 .42849223 .5246684 .4554901 .4960022 .48249818 .46733604 .4960022 .42800395 .4960022 .37800599V0H.40400697V.3650055C.40400697 .40233866 .39700318 .42867027 .3829956 .44400025 .3689982 .45933024 .34833274 .46699525 .32099916 .46699525 .29300437 .46699525 .26833598 .45899455 .24699402 .44299317 .22566223 .42700196 .20566304 .40400187 .18699646 .37399293V0H.09500122V.5269928H.17399597L.18200684 .44900514C.20067342 .4769999 .22383626 .49899803 .25149537 .5149994 .27916465 .5310008 .30966697 .53900149 .34300233 .53900149Z"/>
<path id="font_2_3" d="M.33700563 .53900149C.40433757 .53900149 .45366923 .5149994 .4850006 .46699525 .516332 .41900126 .5319977 .3513387 .5319977 .26400758 .5319977 .18133545 .5139974 .11466471 .47799684 .06399536 .44199626 .013336182 .3909963-.011993408 .32499696-.011993408 .266332-.011993408 .22033184 .008005778 .18699646 .04800415V-.20199585L.09500122-.21299744V.5269928H.17399597L.18099976 .45599366C.20033773 .48266603 .22367351 .50316879 .25100709 .51750186 .27834068 .5318349 .30700685 .53900149 .33700563 .53900149M.30299378 .06300354C.3896637 .06300354 .43299867 .13000489 .43299867 .26400758 .43299867 .39867149 .3933309 .46600343 .31399537 .46600343 .28799439 .46600343 .264328 .45833335 .24299622 .44299317 .22166443 .42766319 .20299785 .40799967 .18699646 .3840027V.1269989C.20033264 .10632833 .21700032 .09049479 .23699951 .07949829 .2569987 .06850179 .2789968 .06300354 .30299378 .06300354Z"/>
<path id="font_2_4" d="M.4869995 0H.40800477L.40100099 .08200073C.3810018 .04933675 .3580017 .025502524 .33200074 .010498047 .30599977-.0044962565 .27433268-.011993408 .23699951-.011993408 .19099935-.011993408 .15499878 .0020039876 .1289978 .02999878 .102996829 .058003744 .08999634 .09767151 .08999634 .14900208V.5269928H.18200684V.15899658C.18200684 .12299601 .18833924 .09749349 .20100403 .08248901 .21366883 .06749471 .2343343 .05999756 .2630005 .05999756 .31433106 .05999756 .3583323 .09033203 .39500428 .15100098V.5269928H.4869995V0Z"/>
<path id="font_2_5" d="M.36099244 .024002076C.32633464 .000005086263 .28700257-.011993408 .24299622-.011993408 .19832866-.011993408 .16349285 .0008392334 .13848877 .026504517 .11349487 .0521698 .100997928 .08933512 .100997928 .13800049V.45599366H.009002686V.5269928H.100997928V.6459961L.19299317 .6569977V.5269928H.31799317L.30799867 .45599366H.19299317V.14199829C.19299317 .11466471 .19782512 .094828289 .20748902 .08248901 .21716309 .07015991 .23333232 .06399536 .2559967 .06399536 .27666728 .06399536 .30000306 .070999149 .32600404 .085006717L.36099244 .024002076Z"/>
<path id="font_2_6" d="M.5070038 .68899539 .49699403 .6080017H.30599977V0H.21099854V.6080017H.01499939V.68899539H.5070038Z"/>
<path id="font_2_7" d="M.44999696 .1230011C.44999696 .10166931 .45366416 .08583578 .46099855 .07550049 .46833293 .0651652 .4793345 .057332357 .4940033 .052001954L.4730072-.011993408C.4456736-.008666992 .42367045-.0010019938 .40699769 .011001587 .39033509 .023005167 .3780009 .041671754 .36999513 .06700134 .33466593 .014338176 .28233338-.011993408 .21299744-.011993408 .16099549-.011993408 .11999512 .002670288 .08999634 .03199768 .05999756 .061335248 .04499817 .09967041 .04499817 .14700318 .04499817 .20300293 .0651652 .2460022 .10549927 .27600099 .14583333 .30599977 .20299785 .32099916 .2769928 .32099916H.3580017V.3600006C.3580017 .39733378 .34899903 .42400108 .33099366 .44000245 .31299845 .45600382 .28533427 .46400453 .2480011 .46400453 .20933533 .46400453 .16200257 .45467124 .10600281 .43600465L.08299255 .503006C.14833069 .527003 .20899964 .53900149 .2649994 .53900149 .32700096 .53900149 .3733317 .5238342 .4039917 .49349977 .43466188 .46316529 .44999696 .41999818 .44999696 .3639984V.1230011M.23399353 .057006837C.28666688 .057006837 .32800294 .084340419 .3580017 .13900757V.2599945H.28900147C.19167073 .2599945 .14300537 .22399394 .14300537 .1519928 .14300537 .120661418 .15067037 .09699503 .16600037 .08099365 .18133037 .06500244 .20399475 .057006837 .23399353 .057006837Z"/>
<path id="font_2_8" d="M.32400514 .53900149C.34267173 .53900149 .3600057 .53700259 .37600709 .53300479L.35899354 .44299317C.34300233 .44700114 .32767234 .44900514 .31300355 .44900514 .28033958 .44900514 .2540029 .43700157 .23399353 .41299439 .21399434 .3889974 .19832866 .35166423 .18699646 .30099488V0H.09500122V.5269928H.17399597L.18299866 .41999818C.19699605 .45933534 .21599324 .4890035 .23999024 .5090027 .2639974 .5290019 .29200236 .53900149 .32400514 .53900149Z"/>
<path id="font_2_9" d="M.5200043 .503006C.50000509 .4963328 .47800193 .49199424 .45399476 .48999024 .42999778 .48799644 .40066529 .4869995 .3659973 .4869995 .42799888 .45900474 .45899964 .41467286 .45899964 .3540039 .45899964 .30133058 .44099937 .2583262 .40499879 .22499085 .3689982 .19166565 .31999717 .17500305 .2579956 .17500305 .23399861 .17500305 .21166484 .17833455 .19099427 .18499756 .18299866 .17966716 .17666626 .17250061 .17199707 .16349793 .16732788 .15449524 .16499329 .14532979 .16499329 .13600159 .16499329 .10733541 .18799336 .09300232 .23399353 .09300232H.31799317C.35333253 .09300232 .38466899 .08666483 .41200257 .07398987 .43933616 .061325075 .4605001 .04399109 .47549439 .021987915 .49049888-.000005086263 .4980011-.024998984 .4980011-.052993776 .4980011-.10433451 .4769999-.14383443 .43499757-.17149353 .3929952-.1991628 .33166505-.21299744 .25100709-.21299744 .19433594-.21299744 .14950054-.2071635 .116500858-.1954956 .08350118-.18382772 .05999756-.16632588 .04598999-.14299011 .031992597-.11966451 .024993897-.08966573 .024993897-.052993776H.10800171C.10800171-.07433573 .11199951-.091171268 .11999512-.103500369 .1280009-.11582947 .14233399-.12516277 .16299439-.13150025 .18366497-.13783773 .21300252-.14100647 .25100709-.14100647 .30633546-.14100647 .3458303-.13417053 .36949159-.12049866 .39316307-.10683695 .40499879-.08633932 .40499879-.059005739 .40499879-.03433736 .3956655-.01566569 .3769989-.0029907227 .3583323 .009674072 .33233134 .01600647 .29899598 .01600647H.21600342C.17133586 .01600647 .13750203 .025502524 .11450195 .04449463 .09150187 .06349691 .08000183 .08733114 .08000183 .115997318 .08000183 .1333313 .085001628 .14999898 .09500122 .16600037 .10500082 .18200176 .1193339 .19633484 .13800049 .20899964 .10733032 .22500102 .0848287 .24483235 .070495609 .26849366 .056162519 .29216514 .04899597 .32099916 .04899597 .35499574 .04899597 .39033509 .05783081 .42200218 .07550049 .44999696 .093170169 .47800193 .117502849 .49983726 .14849854 .5155029 .1795044 .53116866 .21400452 .53900149 .2519989 .53900149 .29332987 .5383301 .32799278 .53982546 .35598756 .54348757 .38399253 .54715988 .40716044 .5521596 .42549134 .55848696 .4438324 .5648244 .46633403 .57399496 .49299623 .58599856L.5200043 .503006M.2519989 .4730072C.21733094 .4730072 .1904958 .46217347 .17149353 .44050599 .15250142 .4188385 .14300537 .39033509 .14300537 .35499574 .14300537 .31899516 .15266927 .29016114 .17199707 .26849366 .19133504 .24682617 .21866863 .23599243 .2539978 .23599243 .28999839 .23599243 .3174998 .24649048 .33650209 .26748658 .35550437 .28849284 .3650055 .31799827 .3650055 .3560028 .3650055 .43400575 .32733665 .4730072 .2519989 .4730072Z"/>
<path id="font_2_10" d="M.49299623 .27900697C.49299623 .26366679 .49232994 .24799602 .4909973 .23199463H.15499878C.15899658 .17400106 .17366028 .13133748 .19898987 .104003909 .22432964 .07667033 .2569987 .06300354 .29699708 .06300354 .32233683 .06300354 .3456726 .06667074 .3670044 .07400513 .38833619 .081339519 .41066996 .09300232 .43400575 .10899353L.47399903 .054000856C.41799928 .01000468 .35666404-.011993408 .2899933-.011993408 .21665955-.011993408 .15949504 .012003581 .118499759 .05999756 .07750448 .10800171 .057006837 .17400106 .057006837 .2579956 .057006837 .31266276 .065836589 .36116029 .083496097 .40348817 .10116577 .4458262 .12650045 .47899375 .15950012 .5029907 .1924998 .52699789 .23133342 .53900149 .27600099 .53900149 .34599815 .53900149 .3996633 .5160014 .43699647 .47000123 .47432963 .42400108 .49299623 .3603363 .49299623 .27900697M.4019928 .30599977C.4019928 .3580017 .3916575 .39766947 .37098695 .42500306 .35032655 .45233665 .31933085 .46600343 .27799989 .46600343 .20266216 .46600343 .16166179 .41066996 .15499878 .30000306H.4019928V.30599977Z"/>
<path id="font_2_11" d=""/>
<path id="font_2_12" d="M.29299928 .53900149C.3670044 .53900149 .4245046 .51433309 .46549989 .46499635 .5064952 .41566978 .5269928 .3486735 .5269928 .26400758 .5269928 .20934041 .5176595 .16117351 .49899293 .119506839 .48032633 .07784017 .45332847 .045506795 .41799928 .022506714 .38267008-.0004933675 .34067283-.011993408 .29200746-.011993408 .21800232-.011993408 .16033428 .012669881 .119003299 .06199646 .077672328 .111333217 .057006837 .17833455 .057006837 .2630005 .057006837 .31766764 .066340129 .36583457 .085006717 .40750123 .1036733 .44916789 .13067119 .48150126 .16600037 .50450137 .20132955 .5275014 .24366252 .53900149 .29299928 .53900149M.29299928 .46499635C.20167034 .46499635 .15600586 .3976644 .15600586 .2630005 .15600586 .1289978 .20133972 .06199646 .29200746 .06199646 .382665 .06199646 .42799378 .1293335 .42799378 .26400758 .42799378 .3980001 .3829956 .46499635 .29299928 .46499635Z"/>
<path id="font_2_13" d="M.23800659 .53900149C.27400718 .53900149 .30634056 .53400167 .3350067 .5240021 .36367289 .5140025 .39100648 .49900309 .41700746 .4790039L.37800599 .42100526C.3539988 .43633525 .3311615 .44766746 .30949403 .45500184 .28782655 .4623362 .2649943 .46600343 .24099732 .46600343 .21099854 .46600343 .18733216 .45983378 .16999817 .4474945 .15266419 .4351654 .14399719 .41833497 .14399719 .39700318 .14399719 .3756714 .15216065 .3590037 .16848755 .34700013 .18482463 .33499656 .21433003 .32332865 .25700379 .31199647 .31566874 .29732768 .35950218 .2773285 .38850404 .2519989 .4175059 .22666931 .43200685 .19200135 .43200685 .147995 .43200685 .09600321 .4118398 .056340536 .37150575 .029006958 .33117167 .0016733805 .28200279-.011993408 .22399903-.011993408 .14400228-.011993408 .07766724 .011006673 .024993897 .057006837L.07400513 .11300659C.11867269 .07899984 .16800435 .06199646 .22200012 .06199646 .2566681 .06199646 .28416953 .069163 .3045044 .083496097 .32483927 .097829189 .3350067 .11732992 .3350067 .14199829 .3350067 .16000366 .3313395 .1745046 .32400514 .1855011 .31667076 .1964976 .30400086 .2061615 .28599549 .2144928 .26800028 .22283428 .2416687 .23166912 .20700073 .24099732 .15100098 .2556661 .11049906 .2753347 .085494998 .30000306 .0605011 .32467143 .04800415 .3560028 .04800415 .3939972 .04800415 .42133079 .056167604 .4461619 .07249451 .4684906 .08883158 .49082948 .11150106 .50816348 .14050293 .52049258 .1695048 .53283187 .20200603 .53900149 .23800659 .53900149Z"/>
<path id="font_2_14" d="M.503006 .7389984V0H.42199708L.41299439 .07299805C.3956604 .046335859 .37399293 .025502524 .34799195 .010498047 .32200114-.0044962565 .29300437-.011993408 .2610016-.011993408 .19833882-.011993408 .14950562 .012669881 .11450195 .06199646 .07949829 .111333217 .06199646 .17766826 .06199646 .2610016 .06199646 .31499736 .07032776 .36299644 .08699036 .40499879 .103663127 .44700114 .1276652 .47983299 .15899658 .50349429 .19032796 .5271657 .22699483 .53900149 .2689972 .53900149 .32300315 .53900149 .3703359 .517334 .41099549 .47399903V.75L.503006 .7389984M.28100587 .06100464C.30900065 .06100464 .33299766 .06750488 .35299684 .08050537 .372996 .09350586 .3923289 .11300659 .41099549 .13900757V.39700318C.3936615 .41966758 .37516276 .4368337 .35549928 .4485016 .33583579 .46016947 .31366984 .46600343 .28900147 .46600343 .24833171 .46600343 .2168274 .44900004 .19448853 .4149933 .17215984 .3809967 .16099549 .33033244 .16099549 .2630005 .16099549 .19499715 .17133077 .1443278 .19200135 .11099243 .21267192 .07766724 .24234009 .06100464 .28100587 .06100464Z"/>
<path id="font_2_15" d="M.19999695-.011993408C.16600037-.011993408 .13916524-.0018310547 .11949158 .018493653 .09982809 .038828535 .08999634 .06733195 .08999634 .104003909V.7389984L.18200684 .75V.10600281C.18200684 .09133402 .1845042 .08066305 .1894989 .07398987 .19450379 .067326869 .20300293 .06399536 .21499634 .06399536 .22766114 .06399536 .23899333 .06599935 .24899292 .070007327L.272995 .005996704C.25100199-.005996704 .22666931-.011993408 .19999695-.011993408Z"/>
<path id="font_2_16" d="M.2440033 .68899539C.34799705 .68899539 .43149314 .6648305 .49449159 .61650088 .5575002 .5681712 .5890045 .4786733 .5890045 .3480072 .5890045 .22066753 .5575002 .13082886 .49449159 .07849121 .43149314 .026163737 .35499574 0 .2649994 0H.1000061V.68899539H.2440033M.19500733 .6130066V.07499695H.27200318C.33599855 .07499695 .3879954 .09466044 .42799378 .13398743 .46800233 .17332459 .4880066 .2446645 .4880066 .3480072 .4880066 .42066957 .4776713 .47650147 .45700074 .5155029 .43633018 .5545044 .4099935 .5805054 .37799073 .59350588 .34599815 .60650637 .30833436 .6130066 .2649994 .6130066H.19500733Z"/>
<path id="font_2_17" d="M.1000061 0V.68899539H.46600343L.45500184 .6130066H.19500733V.37800599H.41999818V.30299378H.19500733V0H.1000061Z"/>
<path id="font_2_18" d="M.27400209 .6759949C.24599712 .6759949 .22599285 .6698303 .21398926 .6575012 .20199585 .6451721 .19599915 .6260071 .19599915 .6000061V.5269928H.32400514L.31399537 .45599366H.19599915V0H.104003909V.45599366H.009994507V.5269928H.104003909V.598999C.104003909 .64433798 .118499759 .680837 .14749146 .7084961 .17649333 .73616537 .21699524 .75 .2689972 .75 .29299418 .75 .3144938 .74783328 .3334961 .74349978 .35249839 .73916628 .3730011 .7323354 .39500428 .7230072L.3659973 .65600588C.33599855 .66933187 .30533348 .6759949 .27400209 .6759949Z"/>
<path id="font_2_19" d="M.28700257 .53900149C.31833396 .53900149 .34700013 .5345001 .3730011 .52549746 .39900209 .51649478 .42400108 .50199386 .44799806 .48199464L.40400697 .42399598C.38534037 .43733216 .36717225 .4471639 .34950257 .4534912 .3318329 .4598287 .31233216 .46299745 .29100038 .46299745 .24833679 .46299745 .21516927 .44599406 .1914978 .4119873 .1678365 .37799073 .15600586 .32766215 .15600586 .2610016 .15600586 .19433086 .16766866 .14516194 .19099427 .11349487 .21433003 .0818278 .2476654 .06599426 .29100038 .06599426 .31167094 .06599426 .33066813 .069163 .34799195 .07550049 .36532594 .081837978 .3846639 .09200541 .40600587 .10600281L.44799806 .04600525C.40000407 .0073394777 .3463389-.011993408 .28700257-.011993408 .21566265-.011993408 .15949504 .012003581 .118499759 .05999756 .07750448 .10800171 .057006837 .17433675 .057006837 .2590027 .057006837 .31500245 .066340129 .3639984 .085006717 .4059906 .1036733 .44799296 .13017273 .48066203 .164505 .5039978 .19883728 .52733358 .2396698 .53900149 .28700257 .53900149Z"/>
<path id="font_2_20" d="M.18699646 .5269928V0H.09500122V.5269928H.18699646M.13999939 .7799988C.15933736 .7799988 .17500305 .773997 .18699646 .7619934 .19900005 .75 .20500183 .7350006 .20500183 .71699526 .20500183 .69900009 .19900005 .6841685 .18699646 .6725006 .17500305 .6608327 .15933736 .6549988 .13999939 .6549988 .1213328 .6549988 .10599772 .6608327 .09399414 .6725006 .08200073 .6841685 .07600403 .69900009 .07600403 .71699526 .07600403 .7350006 .08200073 .75 .09399414 .7619934 .10599772 .773997 .1213328 .7799988 .13999939 .7799988Z"/>
<path id="font_2_21" d="M.27600099 .75C.30399577 .75 .3294932 .7469991 .3524933 .7409973 .37549339 .73499557 .3986613 .7259979 .42199708 .7140045L.3899994 .6499939C.35533143 .6666667 .31833396 .67500308 .27900697 .67500308 .2436676 .67500308 .21932984 .6686656 .20599365 .6559906 .19266765 .6433258 .18600464 .6236623 .18600464 .5970001V.5269928H.47999574V0H.3880005V.45599366H.18600464V0H.09399414V.45599366H.009994507V.5269928H.09399414V.59599307C.09399414 .6426646 .10899353 .67999777 .13899231 .70799258 .16900127 .7359975 .21467082 .75 .27600099 .75Z"/>
<path id="font_2_22" d="M.07499695 .42700196 .05999756 .68899539H.15899658L.14399719 .42700196H.07499695M.25498963 .42700196 .23999024 .68899539H.33898927L.32398988 .42700196H.25498963Z"/>
<path id="font_2_23" d="M.6239929 .53900149C.6673279 .53900149 .70199587 .52450057 .7279968 .49549867 .7539978 .4664968 .7669983 .42733256 .7669983 .37800599V0H.67500308V.3650055C.67500308 .43299867 .65033468 .46699525 .6009979 .46699525 .57499697 .46699525 .5529938 .459493 .5349884 .44448854 .5169932 .42949424 .4976654 .4059957 .477005 .37399293V0H.3849945V.3650055C.3849945 .43299867 .3603312 .46699525 .31100465 .46699525 .28433229 .46699525 .2619934 .45933024 .24398804 .44400025 .22599285 .42867027 .20699565 .40533448 .18699646 .37399293V0H.09500122V.5269928H.17399597L.18200684 .44999696C.22133382 .5093333 .27199809 .53900149 .33399964 .53900149 .3666636 .53900149 .39449565 .5306651 .41749574 .5139923 .44049583 .4973297 .45699565 .47399903 .46699525 .44400025 .4876658 .4746704 .51049807 .49816896 .53549197 .51449587 .56049606 .53083297 .58999636 .53900149 .6239929 .53900149Z"/>
<path id="font_2_24" d="M.29699708 .28199769 .47999574 0H.3690033L.2400055 .2230072 .10899353 0H.005004883L.18899536 .27799989 .026000977 .5269928H.13400269L.2440033 .33399964 .35499574 .5269928H.45899964L.29699708 .28199769Z"/>
</defs>
<path transform="matrix(1,0,0,-1,0,60.858)" stroke-width=".63" stroke-linecap="round" stroke-linejoin="round" fill="none" stroke="#2c66ec" d="M13.0726 .731964H51.3826"/>
<path transform="matrix(1,0,0,-1,0,60.858)" stroke-width=".63" stroke-linecap="round" stroke-linejoin="round" fill="none" stroke="#2eb134" d="M73.1477 .731964H126.1"/>
<path transform="matrix(1,0,0,-1,0,60.858)" d="M46.4949 41.5C44.6321 35.2714 42.7692 29.0428 40.9064 22.8142 31.0592 25.309 21.212 27.8037 11.3648 30.2985 15.3284 35.4845 19.2921 40.6704 23.2557 45.8563 31.0021 44.4042 38.7485 42.9521 46.4949 41.5Z" fill="#f4f4f4" fill-rule="evenodd"/>
<path transform="matrix(1,0,0,-1,0,60.858)" d="M114.252 41.5C112.389 35.2714 110.526 29.0428 108.663 22.8142 98.8159 25.309 88.9687 27.8037 79.1215 30.2985 83.0852 35.4845 87.0488 40.6704 91.0124 45.8563 98.7588 44.4042 106.505 42.9521 114.252 41.5Z" fill="#f4f4f4" fill-rule="evenodd"/>
<path transform="matrix(1,0,0,-1,0,60.858)" d="M58.8455 40.3407C58.6752 40.3059 58.5086 40.4159 58.4738 40.5862 58.439 40.7566 58.549 40.9231 58.7193 40.9579L59.7791 41.1746C59.9495 41.2094 60.116 41.0994 60.1508 40.9291 60.1857 40.7587 60.0756 40.5922 59.9053 40.5574ZM62.0249 40.9907C61.8545 40.9559 61.688 41.0659 61.6532 41.2362 61.6183 41.4065 61.7284 41.5731 61.8987 41.6079L64.0182 42.0412C64.1886 42.0761 64.3551 41.966 64.39 41.7957 64.4248 41.6254 64.3148 41.4588 64.1444 41.424ZM66.264 41.8573C66.0936 41.8225 65.9271 41.9325 65.8923 42.1028 65.8574 42.2732 65.9675 42.4397 66.1378 42.4745L67.1976 42.6912C67.3679 42.726 67.5344 42.616 67.5693 42.4457 67.6041 42.2754 67.4941 42.1088 67.3237 42.074Z" fill="#767676" fill-rule="evenodd"/>
<path transform="matrix(1,0,0,-1,0,60.858)" d="M57.2306 47.1702C57.1955 47.3602 57.3212 47.5429 57.5112 47.578 57.7012 47.6131 57.8839 47.4873 57.9189 47.2974L58.2209 45.6626C58.2559 45.4726 58.1302 45.2899 57.9403 45.2549 57.7503 45.2198 57.5676 45.3455 57.5325 45.5355ZM58.1363 42.266C58.1013 42.4559 58.227 42.6386 58.417 42.6737 58.6069 42.7088 58.7896 42.5831 58.8247 42.3931L59.1266 40.7583C59.1331 40.7234 59.1342 40.6877 59.1299 40.6524L58.9688 39.3326C58.9454 39.1408 58.7708 39.0041 58.579 39.0275 58.3873 39.0509 58.2506 39.2256 58.274 39.4174L58.4285 40.6839ZM57.9519 36.7777C57.9753 36.9695 58.15 37.1062 58.3417 37.0828 58.5335 37.0594 58.6701 36.8847 58.6467 36.693L58.4857 35.3731C58.4623 35.1814 58.2876 35.0447 58.0959 35.0681 57.9041 35.0915 57.7675 35.2662 57.7909 35.4579Z" fill="#767676" fill-rule="evenodd"/>
<path transform="matrix(1,0,0,-1,0,60.858)" d="M56.724 31.8673C56.5309 31.8673 56.374 32.0241 56.374 32.2172 56.3739 32.4104 56.5307 32.5673 56.7239 32.5673L58.4945 32.5678C58.6877 32.5679 58.8446 32.4111 58.8446 32.2179 58.8447 32.0247 58.6879 31.8679 58.4947 31.8678ZM62.036 31.8688C61.8428 31.8687 61.686 32.0255 61.6859 32.2187 61.6859 32.4118 61.8427 32.5687 62.0358 32.5688L63.8065 32.5692C63.9997 32.5693 64.1565 32.4125 64.1566 32.2193 64.1566 32.0262 63.9998 31.8693 63.8067 31.8692Z" fill="#767676" fill-rule="evenodd"/>
<path transform="matrix(1,0,0,-1,0,60.858)" d="M55.2499 39.6966C55.2212 39.8876 55.353 40.066 55.544 40.0947 55.735 40.1234 55.9134 39.9916 55.9421 39.8006L56.2241 37.924C56.2528 37.7329 56.121 37.5545 55.93 37.5258 55.739 37.4971 55.5606 37.6289 55.5319 37.8199ZM56.0959 34.0667C56.0671 34.2577 56.1989 34.4361 56.39 34.4648 56.581 34.4935 56.7594 34.3617 56.7881 34.1707L57.0701 32.2941C57.0841 32.2008 57.0599 32.1059 57.0029 32.0307L55.9961 30.7015C55.8794 30.5475 55.6597 30.5172 55.5057 30.6339 55.3518 30.7505 55.3214 30.9702 55.4381 31.1242L56.3559 32.3359ZM53.4243 28.4658C53.541 28.6197 53.7607 28.6501 53.9147 28.5334 54.0687 28.4168 54.099 28.1971 53.9823 28.0431L52.9755 26.7139C52.8588 26.5599 52.6391 26.5296 52.4851 26.6462 52.3312 26.7629 52.3008 26.9826 52.4175 27.1365Z" fill="#767676" fill-rule="evenodd"/>
<path transform="matrix(1,0,0,-1,0,60.858)" d="M48.2088 22.0343C48.054 22.1498 48.0221 22.3693 48.1376 22.5242 48.2531 22.679 48.4726 22.7109 48.6274 22.5954L51.1003 20.7505C51.2552 20.635 51.2871 20.4155 51.1716 20.2607 51.0561 20.1059 50.8366 20.0739 50.6817 20.1894Z" fill="#767676" fill-rule="evenodd"/>
<path transform="matrix(1,0,0,-1,0,60.858)" d="M19.8277 17.2333C19.6345 17.2349 19.479 17.3931 19.4807 17.5863 19.4824 17.7794 19.6405 17.9349 19.8337 17.9332L21.2273 17.9212C21.4204 17.9195 21.5759 17.7613 21.5742 17.5682 21.5725 17.375 21.4144 17.2195 21.2212 17.2212ZM24.0083 17.1971C23.8151 17.1988 23.6597 17.3569 23.6613 17.5501 23.663 17.7433 23.8212 17.8987 24.0144 17.8971L26.8015 17.8729C26.9946 17.8713 27.1501 17.7131 27.1484 17.5199 27.1467 17.3268 26.9886 17.1713 26.7954 17.173ZM29.5825 17.1489C29.3893 17.1505 29.2338 17.3087 29.2355 17.5019 29.2372 17.695 29.3954 17.8505 29.5885 17.8488L30.9821 17.8368C31.1752 17.8351 31.3307 17.6769 31.329 17.4838 31.3274 17.2906 31.1692 17.1351 30.976 17.1368Z" fill="#ff9b0f" fill-rule="evenodd"/>
<path transform="matrix(1,0,0,-1,0,60.858)" d="M87.5844 17.2333C87.3912 17.2349 87.2358 17.3931 87.2374 17.5863 87.2391 17.7794 87.3973 17.9349 87.5904 17.9332L88.984 17.9212C89.1771 17.9195 89.3326 17.7613 89.3309 17.5682 89.3293 17.375 89.1711 17.2195 88.9779 17.2212ZM91.765 17.1971C91.5719 17.1988 91.4164 17.3569 91.4181 17.5501 91.4197 17.7433 91.5779 17.8987 91.7711 17.8971L94.5582 17.8729C94.7514 17.8713 94.9068 17.7131 94.9051 17.5199 94.9035 17.3268 94.7453 17.1713 94.5521 17.173ZM97.3392 17.1489C97.146 17.1505 96.9906 17.3087 96.9923 17.5019 96.9939 17.695 97.1521 17.8505 97.3453 17.8488L98.7388 17.8368C98.932 17.8351 99.0874 17.6769 99.0858 17.4838 99.0841 17.2906 98.9259 17.1351 98.7328 17.1368Z" fill="#ff9b0f" fill-rule="evenodd"/>
<path transform="matrix(1,0,0,-1,0,60.858)" d="M67.1071 42.6521C67.2608 42.7691 67.4806 42.7394 67.5976 42.5857 67.7147 42.432 67.685 42.2122 67.5313 42.0952L58.3799 35.1253C58.283 35.0515 58.1547 35.0333 58.0412 35.0774 57.9276 35.1215 57.8452 35.2215 57.8235 35.3414L56.5618 42.3113C56.5274 42.5014 56.6538 42.6836 56.8438 42.718 57.0339 42.7525 57.2162 42.6261 57.2506 42.436L58.4105 36.0284Z" fill="#767676" fill-rule="evenodd"/>
<path transform="matrix(1,0,0,-1,0,60.858)" d="M57.6926 47.7309 67.4792 42.7016C67.6228 42.6278 67.6973 42.4652 67.6595 42.3082 67.6216 42.1513 67.4813 42.0405 67.3198 42.0403L56.9067 42.0236C56.8063 42.0235 56.7106 42.0665 56.6441 42.1417 56.5775 42.2169 56.5465 42.3171 56.5589 42.4168L57.1853 47.4627C57.1993 47.5761 57.2679 47.6755 57.369 47.729 57.4701 47.7824 57.5909 47.7831 57.6926 47.7309ZM57.8182 46.8793 57.3024 42.7243 65.8769 42.738Z" fill="#767676" fill-rule="evenodd"/>
<path transform="matrix(1,0,0,-1,0,60.858)" d="M63.6672 32.5389C63.8414 32.6224 64.0506 32.5486 64.134 32.3744 64.2174 32.2002 64.1437 31.991 63.9695 31.9076L52.853 26.5853C52.7544 26.5381 52.6394 26.5397 52.5421 26.5896 52.4448 26.6395 52.3764 26.7321 52.3573 26.8398L50.9866 34.5565C50.9528 34.7467 51.0798 34.9285 51.27 34.9623 51.4602 34.9961 51.642 34.8691 51.6758 34.6789L52.966 27.4155Z" fill="#767676" fill-rule="evenodd"/>
<path transform="matrix(1,0,0,-1,0,60.858)" d="M55.839 40.0564 64.0556 32.4806C64.1707 32.3745 64.2013 32.2048 64.1306 32.0651 64.0599 31.9255 63.905 31.8498 63.7513 31.8797L51.2642 34.3163C51.1428 34.34 51.043 34.4259 51.0015 34.5423 50.96 34.6587 50.983 34.7884 51.062 34.8835L55.3325 40.0227C55.3939 40.0965 55.4828 40.1419 55.5785 40.1483 55.6743 40.1546 55.7684 40.1214 55.839 40.0564ZM55.6354 39.2919 51.9777 34.8903 62.6728 32.8034Z" fill="#767676" fill-rule="evenodd"/>
<path transform="matrix(1,0,0,-1,0,60.858)" d="M50.8212 20.8089C51.0105 20.8475 51.1955 20.7252 51.2341 20.5359 51.2727 20.3467 51.1504 20.1617 50.9612 20.123L39.8604 17.8574C39.7653 17.8379 39.6663 17.8589 39.5872 17.9153 39.5081 17.9717 39.456 18.0585 39.4434 18.1548L38.3022 26.8554C38.2771 27.047 38.4122 27.2229 38.6037 27.248 38.7953 27.2731 38.9712 27.138 38.9963 26.9465L40.0886 18.6184Z" fill="#767676" fill-rule="evenodd"/>
<path transform="matrix(1,0,0,-1,0,60.858)" d="M47.9476 30.9125 51.2248 20.5717C51.2678 20.4362 51.2245 20.2883 51.1154 20.1972 51.0063 20.1062 50.853 20.0901 50.7274 20.1566L38.4855 26.636C38.3665 26.699 38.2941 26.8248 38.2995 26.9594 38.3049 27.094 38.3871 27.2135 38.5108 27.2668L47.4755 31.1282C47.5664 31.1673 47.6695 31.1662 47.7594 31.1251 47.8494 31.084 47.9178 31.0068 47.9476 30.9125ZM47.3972 30.3323 39.4587 26.9129 50.2992 21.1753Z" fill="#767676" fill-rule="evenodd"/>
<path transform="matrix(1,0,0,-1,0,60.858)" d="M30.7478 26.6094C30.7504 26.8025 30.9093 26.9572 31.1025 26.9547 31.2956 26.9521 31.4503 26.7932 31.4478 26.6L31.3268 17.5067C31.3245 17.3405 31.2057 17.1988 31.0424 17.1676L25.1107 16.0355C25.0637 16.0265 25.0155 16.0272 24.9689 16.0376L19.6991 17.2129C19.5412 17.2482 19.4279 17.3871 19.4254 17.5489L19.2796 26.6744C19.2765 26.8675 19.4308 27.0269 19.6239 27.0299 19.8171 27.033 19.9764 26.8787 19.9795 26.6856L20.1209 17.8361 25.0506 16.7366 30.6306 17.8016Z" fill="#ff9b0f" fill-rule="evenodd"/>
<path transform="matrix(1,0,0,-1,0,60.858)" d="M98.5046 26.6094C98.5071 26.8025 98.666 26.9572 98.8592 26.9547 99.0523 26.9521 99.2071 26.7932 99.2045 26.6L99.0835 17.5067C99.0813 17.3405 98.9624 17.1988 98.7991 17.1676L92.8674 16.0355C92.8205 16.0265 92.7722 16.0272 92.7256 16.0376L87.4559 17.2129C87.2979 17.2482 87.1847 17.3871 87.1821 17.5489L87.0363 26.6744C87.0332 26.8675 87.1875 27.0269 87.3807 27.0299 87.5738 27.033 87.7331 26.8787 87.7362 26.6856L87.8776 17.8361 92.8073 16.7366 98.3874 17.8016Z" fill="#ff9b0f" fill-rule="evenodd"/>
<path transform="matrix(1,0,0,-1,0,60.858)" d="M12.4022 27.7C12.424 27.8919 12.5975 28.0301 12.7894 28.0083 12.9813 27.9865 13.1195 27.813 13.0977 27.6211L12.0981 18.8136C12.0871 18.7166 12.0361 18.6286 11.9573 18.5709 11.8786 18.5131 11.7793 18.4909 11.6834 18.5096L.48473 20.6902C.295122 20.7272 .171159 20.9111 .208081 21.1007 .245003 21.2903 .428917 21.4143 .618526 21.3773L11.4453 19.2691Z" fill="#767676" fill-rule="evenodd"/>
<path transform="matrix(1,0,0,-1,0,60.858)" d="M80.1589 27.7C80.1807 27.8919 80.3542 28.0301 80.5461 28.0083 80.7381 27.9865 80.8762 27.813 80.8544 27.6211L79.8548 18.8136C79.8438 18.7166 79.7928 18.6286 79.714 18.5709 79.6353 18.5131 79.536 18.4909 79.4402 18.5096L68.2415 20.6902C68.0519 20.7272 67.9279 20.9111 67.9648 21.1007 68.0017 21.2903 68.1856 21.4143 68.3753 21.3773L79.202 19.2691Z" fill="#767676" fill-rule="evenodd"/>
<path transform="matrix(1,0,0,-1,0,60.858)" d="M24.7206 16.2167 19.3195 26.5175C19.2625 26.6263 19.2667 26.7571 19.3306 26.8621 19.3946 26.9671 19.5089 27.0308 19.6318 27.03L31.1156 26.9537C31.241 26.9528 31.3564 26.8849 31.4181 26.7757 31.4797 26.6664 31.4782 26.5326 31.414 26.4247L25.3314 16.2003C25.2665 16.0913 25.1479 16.026 25.0212 16.0294 24.8944 16.0328 24.7795 16.1044 24.7206 16.2167ZM25.0498 17.0962 30.5002 26.2578 20.2103 26.3261Z" fill="#ff9b0f" fill-rule="evenodd"/>
<path transform="matrix(1,0,0,-1,0,60.858)" d="M92.4773 16.2167 87.0763 26.5175C87.0192 26.6263 87.0234 26.7571 87.0874 26.8621 87.1513 26.9671 87.2657 27.0308 87.3886 27.03L98.8723 26.9537C98.9977 26.9528 99.1131 26.8849 99.1748 26.7757 99.2364 26.6664 99.2349 26.5326 99.1708 26.4247L93.0881 16.2003C93.0233 16.0913 92.9046 16.026 92.7779 16.0294 92.6512 16.0328 92.5362 16.1044 92.4773 16.2167ZM92.8066 17.0962 98.2569 26.2578 87.967 26.3261Z" fill="#ff9b0f" fill-rule="evenodd"/>
<path transform="matrix(1,0,0,-1,0,60.858)" d="M.217284 21.1373 3.43409 31.5279C3.46324 31.6221 3.53073 31.6995 3.61999 31.7414 3.70925 31.7832 3.81199 31.7854 3.90298 31.7475L12.8845 28.0075C13.0088 27.9557 13.0924 27.8372 13.0995 27.7027 13.1065 27.5682 13.0357 27.4416 12.9175 27.3771L.719168 20.7265C.594096 20.6583 .440174 20.6727 .329939 20.7629 .219705 20.8532 .175155 21.0012 .217284 21.1373ZM1.14089 21.7537 11.9411 27.6421 3.98901 30.9534Z" fill="#767676" fill-rule="evenodd"/>
<path transform="matrix(1,0,0,-1,0,60.858)" d="M67.974 21.1373 71.1908 31.5279C71.22 31.6221 71.2875 31.6995 71.3767 31.7414 71.466 31.7832 71.5687 31.7854 71.6597 31.7475L80.6412 28.0075C80.7656 27.9557 80.8492 27.8372 80.8562 27.7027 80.8632 27.5682 80.7925 27.4416 80.6742 27.3771L68.4759 20.7265C68.3508 20.6583 68.1969 20.6727 68.0867 20.7629 67.9764 20.8532 67.9319 21.0012 67.974 21.1373ZM68.8976 21.7537 79.6979 27.6421 71.7457 30.9534Z" fill="#767676" fill-rule="evenodd"/>
<path transform="matrix(1,0,0,-1,0,60.858)" d="M2.74824 22.9998 2.82073 23.9125C2.83602 24.1051 3.00478 24.249 3.19734 24.2337 3.3899 24.2184 3.53382 24.0497 3.51853 23.8571L3.4524 23.0244 4.31267 22.6318C4.48841 22.5516 4.56598 22.3438 4.48578 22.1681 4.40559 21.9924 4.1978 21.9148 4.02207 21.995L3.12092 22.4062 .752434 20.7471C.594112 20.6362 .375864 20.6747 .264962 20.833 .154061 20.9913 .192502 21.2095 .350823 21.3204ZM3.41953 31.4521C3.43483 31.6447 3.60358 31.7886 3.79614 31.7733 3.98871 31.758 4.13263 31.5892 4.11733 31.3967L4.03179 30.3196C4.0165 30.127 3.84774 29.9831 3.65518 29.9984 3.46262 30.0137 3.31869 30.1825 3.33399 30.375ZM3.1629 28.2208C3.17819 28.4134 3.34695 28.5573 3.53951 28.542 3.73208 28.5267 3.876 28.358 3.8607 28.1654L3.68962 26.0113C3.67432 25.8187 3.50557 25.6748 3.31301 25.6901 3.12044 25.7054 2.97652 25.8741 2.99181 26.0667ZM6.18864 21.0063C6.0129 21.0865 5.93533 21.2943 6.01552 21.47 6.09572 21.6458 6.3035 21.7234 6.47924 21.6432L8.64581 20.6545C8.82154 20.5743 8.89911 20.3665 8.81892 20.1908 8.73873 20.015 8.53094 19.9375 8.3552 20.0177ZM10.5218 19.029C10.346 19.1092 10.2684 19.317 10.3486 19.4927 10.4288 19.6685 10.6366 19.746 10.8124 19.6658L11.8956 19.1715C12.0714 19.0913 12.1489 18.8835 12.0687 18.7078 11.9886 18.5321 11.7808 18.4545 11.605 18.5347Z" fill="#767676" fill-rule="evenodd"/>
<path transform="matrix(1,0,0,-1,0,60.858)" d="M70.505 22.9998 70.5775 23.9125C70.5928 24.1051 70.7615 24.249 70.9541 24.2337 71.1466 24.2184 71.2906 24.0497 71.2753 23.8571L71.2091 23.0244 72.0694 22.6318C72.2451 22.5516 72.3227 22.3438 72.2425 22.1681 72.1623 21.9924 71.9545 21.9148 71.7788 21.995L70.8777 22.4062 68.5092 20.7471C68.3508 20.6362 68.1326 20.6747 68.0217 20.833 67.9108 20.9913 67.9492 21.2095 68.1076 21.3204ZM71.1763 31.4521C71.1916 31.6447 71.3603 31.7886 71.5529 31.7733 71.7454 31.758 71.8894 31.5892 71.8741 31.3967L71.7885 30.3196C71.7732 30.127 71.6045 29.9831 71.4119 29.9984 71.2193 30.0137 71.0754 30.1825 71.0907 30.375ZM70.9196 28.2208C70.9349 28.4134 71.1037 28.5573 71.2962 28.542 71.4888 28.5267 71.6327 28.358 71.6174 28.1654L71.4463 26.0113C71.4311 25.8187 71.2623 25.6748 71.0697 25.6901 70.8772 25.7054 70.7333 25.8741 70.7485 26.0667ZM73.9454 21.0063C73.7696 21.0865 73.6921 21.2943 73.7723 21.47 73.8525 21.6458 74.0602 21.7234 74.236 21.6432L76.4025 20.6545C76.5783 20.5743 76.6558 20.3665 76.5757 20.1908 76.4955 20.015 76.2877 19.9375 76.1119 20.0177ZM78.2785 19.029C78.1027 19.1092 78.0252 19.317 78.1054 19.4927 78.1856 19.6685 78.3933 19.746 78.5691 19.6658L79.6524 19.1715C79.8281 19.0913 79.9057 18.8835 79.8255 18.7078 79.7453 18.5321 79.5375 18.4545 79.3618 18.5347Z" fill="#767676" fill-rule="evenodd"/>
<path transform="matrix(1,0,0,-1,0,60.858)" d="M47.2743 30.7264C47.2561 30.9187 47.3975 31.0896 47.5898 31.1078 47.7821 31.126 47.953 30.9846 47.9712 30.7923L48.0706 29.7409C48.0888 29.5486 47.9474 29.3777 47.7551 29.3595 47.5628 29.3413 47.3919 29.4827 47.3737 29.675ZM47.5726 27.5721C47.5544 27.7645 47.6957 27.9353 47.888 27.9535 48.0804 27.9717 48.2513 27.8304 48.2694 27.638L48.4683 25.5352C48.4865 25.3429 48.3451 25.172 48.1528 25.1538 47.9605 25.1356 47.7896 25.277 47.7714 25.4693ZM47.9702 23.3665C47.9521 23.5588 48.0934 23.7297 48.2857 23.7479 48.4781 23.7661 48.649 23.6247 48.6671 23.4324L48.7666 22.381C48.7804 22.235 48.7016 22.0958 48.5693 22.0324L47.4959 21.5182C47.3216 21.4347 47.1124 21.5084 47.029 21.6826 46.9455 21.8568 47.0192 22.066 47.1934 22.1495L48.0467 22.5582ZM45.0465 21.121C45.2207 21.2044 45.4299 21.1307 45.5133 20.9565 45.5968 20.7823 45.5231 20.5731 45.3489 20.4897L43.2019 19.4612C43.0277 19.3777 42.8185 19.4514 42.7351 19.6256 42.6516 19.7998 42.7253 20.009 42.8995 20.0925ZM40.7526 19.064C40.9268 19.1475 41.136 19.0738 41.2195 18.8996 41.3029 18.7254 41.2292 18.5162 41.055 18.4327L39.9815 17.9185C39.8073 17.835 39.5981 17.9087 39.5147 18.0829 39.4312 18.2571 39.5049 18.4663 39.6791 18.5498Z" fill="#767676" fill-rule="evenodd"/>
<path transform="matrix(1,0,0,-1,0,60.858)" d="M.458544 20.6721C.292454 20.7235 .199321 20.9001 .250696 21.0661 .30207 21.2322 .478624 21.3254 .644713 21.274 .947698 21.1803 1.25081 21.0878 1.55402 20.9967 1.72051 20.9466 1.81505 20.7708 1.765 20.6043 1.71495 20.4378 1.53914 20.3433 1.37265 20.3934 1.06784 20.485 .763128 20.5779 .458544 20.6721ZM3.20738 19.8577C3.04011 19.9051 2.94277 20.0794 2.99016 20.2467 3.03754 20.4139 3.21181 20.5113 3.37908 20.4639 3.99021 20.2908 4.60143 20.123 5.21246 19.9605 5.38048 19.9158 5.48061 19.7431 5.43593 19.5751 5.39125 19.4071 5.21857 19.307 5.05056 19.3516 4.43626 19.515 3.82178 19.6837 3.20738 19.8577ZM6.90179 18.8754C6.73307 18.9174 6.63014 19.0884 6.67207 19.2571 6.71401 19.4258 6.88503 19.5288 7.05375 19.4868 7.67059 19.3335 8.28694 19.1857 8.9025 19.0435 9.07189 19.0044 9.17763 18.8351 9.1385 18.6657 9.09936 18.4963 8.93006 18.3905 8.76067 18.4297 8.14174 18.5727 7.52201 18.7213 6.90179 18.8754ZM10.6267 18.015C10.4567 18.0513 10.3481 18.2188 10.3844 18.3888 10.4206 18.5588 10.5881 18.6674 10.7582 18.6311 11.3802 18.4984 12.0011 18.3714 12.6205 18.2503 12.7912 18.2169 12.9026 18.0513 12.8692 17.8807 12.8359 17.7101 12.6703 17.5986 12.4997 17.632 11.8767 17.7538 11.2522 17.8815 10.6267 18.015ZM14.3791 17.2816C14.2079 17.312 14.0936 17.4756 14.124 17.6468 14.1543 17.818 14.3179 17.9323 14.4891 17.9019 15.1158 17.7908 15.7407 17.6858 16.3635 17.587 16.5352 17.5598 16.6525 17.3982 16.6252 17.2265 16.598 17.0548 16.4364 16.9375 16.2647 16.9648 15.6382 17.0642 15.0096 17.1698 14.3791 17.2816ZM18.156 16.6826C17.9839 16.7067 17.8636 16.866 17.8876 17.0382 17.9117 17.2104 18.071 17.3306 18.2431 17.3066 18.8739 17.2185 19.5022 17.137 20.1275 17.062 20.3002 17.0413 20.4235 16.8843 20.4028 16.7117 20.3821 16.5391 20.2251 16.4158 20.0525 16.4365 19.4232 16.5119 18.7909 16.594 18.156 16.6826ZM21.9537 16.2277C21.7807 16.2449 21.6543 16.3994 21.6715 16.5724 21.6887 16.7454 21.8432 16.8718 22.0162 16.8546 22.6504 16.7915 23.2813 16.7353 23.9083 16.6861 24.0817 16.6725 24.2113 16.5208 24.1978 16.3475 24.1842 16.1742 24.0324 16.0445 23.8591 16.0581 23.2277 16.1075 22.5924 16.1641 21.9537 16.2277ZM25.768 15.9295C25.5944 15.9392 25.4614 16.0881 25.4712 16.2616 25.4809 16.4352 25.6298 16.5682 25.8034 16.5585 26.4403 16.5227 27.0728 16.4944 27.7005 16.4738 27.8742 16.468 28.0107 16.3223 28.0049 16.1486 27.9992 15.9748 27.8535 15.8384 27.6798 15.8441 27.0472 15.8649 26.4099 15.8934 25.768 15.9295ZM29.5934 15.8045C29.4195 15.806 29.2796 15.9483 29.281 16.1221 29.2824 16.296 29.4247 16.4359 29.5986 16.4345 30.237 16.4293 30.8698 16.4322 31.4966 16.4435 31.6704 16.4467 31.8141 16.3081 31.8172 16.1343 31.8203 15.9604 31.6818 15.8168 31.5079 15.8136 30.8757 15.8022 30.2374 15.7992 29.5934 15.8045ZM33.4221 15.8748C33.2484 15.8667 33.1009 16.0012 33.0929 16.1749 33.0849 16.3486 33.2194 16.4961 33.393 16.5041 34.0313 16.5336 34.6625 16.5722 35.2862 16.6199 35.4596 16.6332 35.6111 16.5033 35.6244 16.3299 35.6376 16.1566 35.5077 16.005 35.3343 15.9918 34.7044 15.9435 34.0668 15.9045 33.4221 15.8748ZM37.2427 16.1691C37.0699 16.1501 36.9142 16.275 36.8952 16.4478 36.8763 16.6206 37.0012 16.7763 37.174 16.7953 37.8096 16.865 38.4363 16.945 39.0537 17.0352 39.2257 17.0603 39.3858 16.9411 39.4109 16.769 39.4361 16.597 39.3168 16.4369 39.1448 16.4118 38.5201 16.3205 37.8859 16.2396 37.2427 16.1691ZM41.0375 16.7259C40.8666 16.694 40.702 16.8069 40.6701 16.9778 40.6382 17.1487 40.7511 17.3133 40.922 17.3452 41.5509 17.4625 42.1686 17.5914 42.7746 17.7319 42.9439 17.7712 43.1133 17.6656 43.1526 17.4963 43.1919 17.3269 43.0863 17.1575 42.9169 17.1182 42.3022 16.9757 41.6755 16.8449 41.0375 16.7259ZM44.7778 17.5967C44.6105 17.5493 44.4362 17.6465 44.3888 17.8138 44.3414 17.9811 44.4387 18.1554 44.6059 18.2028 45.2212 18.3773 45.8225 18.565 46.409 18.7662 46.5735 18.8226 46.7528 18.7349 46.8092 18.5704 46.8656 18.406 46.7779 18.2267 46.6134 18.1703 46.0164 17.9654 45.4042 17.7743 44.7778 17.5967ZM48.415 18.8491C48.2543 18.7828 48.07 18.8594 48.0036 19.0201 47.9373 19.1808 48.0139 19.3651 48.1746 19.4315 48.7648 19.6751 49.3373 19.9341 49.891 20.2088 50.0468 20.2861 50.2359 20.2223 50.3132 20.0666 50.3904 19.9109 50.3267 19.7217 50.171 19.6444 49.6045 19.3634 49.0188 19.0984 48.415 18.8491ZM51.8646 20.5587C51.7137 20.4724 51.5211 20.5248 51.4348 20.6757 51.3485 20.8266 51.4009 21.0192 51.5518 21.1056 52.1153 21.4279 52.6575 21.7511 53.1796 22.0754 53.3272 22.1672 53.5216 22.1218 53.6134 21.9741 53.7051 21.8264 53.6597 21.6321 53.512 21.5403 52.9837 21.2121 52.4349 20.885 51.8646 20.5587ZM55.1213 22.5865C54.9776 22.4886 54.7815 22.5258 54.6836 22.6695 54.5857 22.8131 54.6229 23.0093 54.7666 23.1071 55.3026 23.4722 55.8145 23.8392 56.3035 24.2085 56.4423 24.3132 56.64 24.2856 56.7447 24.1469 56.8495 24.0081 56.8219 23.8104 56.6832 23.7057 56.1862 23.3304 55.666 22.9575 55.1213 22.5865ZM58.1861 24.9067C58.0535 24.7943 57.8545 24.8107 57.7421 24.9434 57.6297 25.076 57.6462 25.2749 57.7788 25.3873 58.2716 25.8048 58.7376 26.2258 59.1787 26.6509 59.3039 26.7716 59.5035 26.7679 59.6241 26.6427 59.7448 26.5175 59.7411 26.3179 59.6159 26.1973 59.1654 25.7631 58.6894 25.3331 58.1861 24.9067ZM60.9565 27.5835C60.8403 27.4543 60.641 27.4437 60.5117 27.5599 60.3824 27.6761 60.3718 27.8755 60.4881 28.0048 60.9161 28.4808 61.3164 28.9626 61.6913 29.4511 61.7972 29.589 61.9951 29.615 62.133 29.5092 62.2709 29.4033 62.2969 29.2054 62.1911 29.0675 61.8064 28.5663 61.3957 28.072 60.9565 27.5835ZM63.3042 30.6458C63.2099 30.4998 63.0147 30.4578 62.8687 30.5521 62.7227 30.6465 62.6807 30.8416 62.775 30.9877 63.1182 31.5188 63.4358 32.0583 63.7306 32.6072 63.8129 32.7603 64.004 32.8179 64.1572 32.7356 64.3103 32.6533 64.3679 32.4622 64.2856 32.309 63.9828 31.7453 63.6566 31.1912 63.3042 30.6458ZM65.1325 34.0432C65.0621 33.8842 64.8759 33.8122 64.717 33.8826 64.558 33.953 64.4861 34.1392 64.5564 34.2982 64.8097 34.8702 65.0427 35.4528 65.2585 36.0469 65.3179 36.2103 65.4987 36.2948 65.6621 36.2355 65.8256 36.1761 65.91 35.9953 65.8507 35.8319 65.63 35.2242 65.3915 34.6283 65.1325 34.0432ZM66.4531 37.6596C66.4033 37.493 66.2277 37.3981 66.0611 37.4478 65.8945 37.4976 65.7997 37.6732 65.8494 37.8398 66.0274 38.4362 66.192 39.0442 66.3455 39.6647 66.3873 39.8335 66.5582 39.9366 66.727 39.8949 66.8957 39.8531 66.9988 39.6822 66.9571 39.5134 66.8011 38.883 66.6339 38.2654 66.4531 37.6596ZM67.3817 41.3838C67.3462 41.2136 67.1792 41.1042 67.009 41.1397 66.8388 41.1751 66.7294 41.3421 66.7649 41.5123 66.8289 41.8192 66.8909 42.1292 66.9514 42.4423 66.9843 42.613 67.1496 42.7248 67.3203 42.6919 67.491 42.6589 67.6029 42.4936 67.5699 42.3229 67.5089 42.0067 67.4463 41.6937 67.3817 41.3838Z" fill="#2c66ec" fill-rule="evenodd"/>
<use data-text="(" xlink:href="#font_1_1" transform="matrix(6,0,0,-6,3.83985,5.318203)"/>
<use data-text="a" xlink:href="#font_1_2" transform="matrix(6,0,0,-6,5.78985,5.318203)"/>
<use data-text=")" xlink:href="#font_1_3" transform="matrix(6,0,0,-6,9.07785,5.318203)"/>
<use data-text=" " xlink:href="#font_1_4" transform="matrix(6,0,0,-6,11.027849,5.318203)"/>
<use data-text="M" xlink:href="#font_1_5" transform="matrix(6,0,0,-6,12.44985,5.318203)"/>
<use data-text="a" xlink:href="#font_1_2" transform="matrix(6,0,0,-6,17.16585,5.318203)"/>
<use data-text="n" xlink:href="#font_1_6" transform="matrix(6,0,0,-6,20.45385,5.318203)"/>
<use data-text="y" xlink:href="#font_1_7" transform="matrix(6,0,0,-6,23.87985,5.318203)"/>
<use data-text=" " xlink:href="#font_1_4" transform="matrix(6,0,0,-6,26.98785,5.318203)"/>
<use data-text="I" xlink:href="#font_1_8" transform="matrix(6,0,0,-6,28.46985,5.318203)"/>
<use data-text="n" xlink:href="#font_1_6" transform="matrix(6,0,0,-6,30.22785,5.318203)"/>
<use data-text="p" xlink:href="#font_1_9" transform="matrix(6,0,0,-6,33.68985,5.318203)"/>
<use data-text="u" xlink:href="#font_1_10" transform="matrix(6,0,0,-6,37.27185,5.318203)"/>
<use data-text="t" xlink:href="#font_1_11" transform="matrix(6,0,0,-6,40.70385,5.318203)"/>
<use data-text=" " xlink:href="#font_1_4" transform="matrix(6,0,0,-6,43.01985,5.318203)"/>
<use data-text="V" xlink:href="#font_1_12" transform="matrix(6,0,0,-6,44.441854,5.318203)"/>
<use data-text="i" xlink:href="#font_1_13" transform="matrix(6,0,0,-6,47.861856,5.318203)"/>
<use data-text="e" xlink:href="#font_1_14" transform="matrix(6,0,0,-6,49.553857,5.318203)"/>
<use data-text="w" xlink:href="#font_1_15" transform="matrix(6,0,0,-6,52.865858,5.318203)"/>
<use data-text="s" xlink:href="#font_1_16" transform="matrix(6,0,0,-6,57.359857,5.318203)"/>
<use data-text="(" xlink:href="#font_1_1" transform="matrix(6,0,0,-6,71.7196,5.318203)"/>
<use data-text="b" xlink:href="#font_1_17" transform="matrix(6,0,0,-6,73.66959,5.318203)"/>
<use data-text=")" xlink:href="#font_1_3" transform="matrix(6,0,0,-6,77.251598,5.318203)"/>
<use data-text=" " xlink:href="#font_1_4" transform="matrix(6,0,0,-6,79.2016,5.318203)"/>
<use data-text="S" xlink:href="#font_1_18" transform="matrix(6,0,0,-6,80.6236,5.318203)"/>
<use data-text="i" xlink:href="#font_1_13" transform="matrix(6,0,0,-6,84.055599,5.318203)"/>
<use data-text="n" xlink:href="#font_1_6" transform="matrix(6,0,0,-6,85.7476,5.318203)"/>
<use data-text="g" xlink:href="#font_1_19" transform="matrix(6,0,0,-6,89.209598,5.318203)"/>
<use data-text="l" xlink:href="#font_1_20" transform="matrix(6,0,0,-6,92.515598,5.318203)"/>
<use data-text="e" xlink:href="#font_1_14" transform="matrix(6,0,0,-6,94.26759,5.318203)"/>
<use data-text=" " xlink:href="#font_1_4" transform="matrix(6,0,0,-6,97.5796,5.318203)"/>
<use data-text="I" xlink:href="#font_1_8" transform="matrix(6,0,0,-6,99.0016,5.318203)"/>
<use data-text="n" xlink:href="#font_1_6" transform="matrix(6,0,0,-6,100.7596,5.318203)"/>
<use data-text="p" xlink:href="#font_1_9" transform="matrix(6,0,0,-6,104.2216,5.318203)"/>
<use data-text="u" xlink:href="#font_1_10" transform="matrix(6,0,0,-6,107.803607,5.318203)"/>
<use data-text="t" xlink:href="#font_1_11" transform="matrix(6,0,0,-6,111.235599,5.318203)"/>
<use data-text=" " xlink:href="#font_1_4" transform="matrix(6,0,0,-6,113.5516,5.318203)"/>
<use data-text="V" xlink:href="#font_1_12" transform="matrix(6,0,0,-6,114.9736,5.318203)"/>
<use data-text="i" xlink:href="#font_1_13" transform="matrix(6,0,0,-6,118.3936,5.318203)"/>
<use data-text="e" xlink:href="#font_1_14" transform="matrix(6,0,0,-6,120.0856,5.318203)"/>
<use data-text="w" xlink:href="#font_1_15" transform="matrix(6,0,0,-6,123.3976,5.318203)"/>
<use data-text="I" xlink:href="#font_2_1" transform="matrix(5,0,0,-5,124.674,24.840302)"/>
<use data-text="n" xlink:href="#font_2_2" transform="matrix(5,0,0,-5,126.149,24.840302)"/>
<use data-text="p" xlink:href="#font_2_3" transform="matrix(5,0,0,-5,129.07901,24.840302)"/>
<use data-text="u" xlink:href="#font_2_4" transform="matrix(5,0,0,-5,132.04901,24.840302)"/>
<use data-text="t" xlink:href="#font_2_5" transform="matrix(5,0,0,-5,134.959,24.840302)"/>
<use data-text="T" xlink:href="#font_2_6" transform="matrix(5,0,0,-5,124.674,31.059903)"/>
<use data-text="a" xlink:href="#font_2_7" transform="matrix(5,0,0,-5,127.009,31.059903)"/>
<use data-text="r" xlink:href="#font_2_8" transform="matrix(5,0,0,-5,129.729,31.059903)"/>
<use data-text="g" xlink:href="#font_2_9" transform="matrix(5,0,0,-5,131.584,31.059903)"/>
<use data-text="e" xlink:href="#font_2_10" transform="matrix(5,0,0,-5,134.104,31.059903)"/>
<use data-text="t" xlink:href="#font_2_5" transform="matrix(5,0,0,-5,136.82901,31.059903)"/>
<use data-text="T" xlink:href="#font_2_6" transform="matrix(5,0,0,-5,79.1695,53.28136)"/>
<use data-text="a" xlink:href="#font_2_7" transform="matrix(5,0,0,-5,81.5045,53.28136)"/>
<use data-text="r" xlink:href="#font_2_8" transform="matrix(5,0,0,-5,84.2245,53.28136)"/>
<use data-text="g" xlink:href="#font_2_9" transform="matrix(5,0,0,-5,86.079509,53.28136)"/>
<use data-text="e" xlink:href="#font_2_10" transform="matrix(5,0,0,-5,88.5995,53.28136)"/>
<use data-text="t" xlink:href="#font_2_5" transform="matrix(5,0,0,-5,91.3245,53.28136)"/>
<use data-text=" " xlink:href="#font_2_11" transform="matrix(5,0,0,-5,93.1295,53.28136)"/>
<use data-text="p" xlink:href="#font_2_3" transform="matrix(5,0,0,-5,94.454509,53.28136)"/>
<use data-text="o" xlink:href="#font_2_12" transform="matrix(5,0,0,-5,97.4245,53.28136)"/>
<use data-text="s" xlink:href="#font_2_13" transform="matrix(5,0,0,-5,100.344509,53.28136)"/>
<use data-text="e" xlink:href="#font_2_10" transform="matrix(5,0,0,-5,102.679508,53.28136)"/>
<use data-text=" " xlink:href="#font_2_11" transform="matrix(5,0,0,-5,105.4045,53.28136)"/>
<use data-text="n" xlink:href="#font_2_2" transform="matrix(5,0,0,-5,106.72951,53.28136)"/>
<use data-text="e" xlink:href="#font_2_10" transform="matrix(5,0,0,-5,109.65951,53.28136)"/>
<use data-text="e" xlink:href="#font_2_10" transform="matrix(5,0,0,-5,112.38451,53.28136)"/>
<use data-text="d" xlink:href="#font_2_14" transform="matrix(5,0,0,-5,115.109508,53.28136)"/>
<use data-text="s" xlink:href="#font_2_13" transform="matrix(5,0,0,-5,118.0995,53.28136)"/>
<use data-text="a" xlink:href="#font_2_7" transform="matrix(5,0,0,-5,73.0681,59.28136)"/>
<use data-text="l" xlink:href="#font_2_15" transform="matrix(5,0,0,-5,75.7381,59.28136)"/>
<use data-text="l" xlink:href="#font_2_15" transform="matrix(5,0,0,-5,77.2031,59.28136)"/>
<use data-text=" " xlink:href="#font_2_11" transform="matrix(5,0,0,-5,78.6681,59.28136)"/>
<use data-text="D" xlink:href="#font_2_16" transform="matrix(5,0,0,-5,79.9931,59.28136)"/>
<use data-text="o" xlink:href="#font_2_12" transform="matrix(5,0,0,-5,83.213108,59.28136)"/>
<use data-text="F" xlink:href="#font_2_17" transform="matrix(5,0,0,-5,86.1331,59.28136)"/>
<use data-text=" " xlink:href="#font_2_11" transform="matrix(5,0,0,-5,88.588108,59.28136)"/>
<use data-text="f" xlink:href="#font_2_18" transform="matrix(5,0,0,-5,89.9131,59.28136)"/>
<use data-text="o" xlink:href="#font_2_12" transform="matrix(5,0,0,-5,91.5381,59.28136)"/>
<use data-text="r" xlink:href="#font_2_8" transform="matrix(5,0,0,-5,94.4581,59.28136)"/>
<use data-text=" " xlink:href="#font_2_11" transform="matrix(5,0,0,-5,96.3881,59.28136)"/>
<use data-text="s" xlink:href="#font_2_13" transform="matrix(5,0,0,-5,97.713108,59.28136)"/>
<use data-text="p" xlink:href="#font_2_3" transform="matrix(5,0,0,-5,100.0481,59.28136)"/>
<use data-text="e" xlink:href="#font_2_10" transform="matrix(5,0,0,-5,103.018108,59.28136)"/>
<use data-text="c" xlink:href="#font_2_19" transform="matrix(5,0,0,-5,105.7431,59.28136)"/>
<use data-text="i" xlink:href="#font_2_20" transform="matrix(5,0,0,-5,108.1331,59.28136)"/>
<use data-text="f" xlink:href="#font_2_21" transform="matrix(5,0,0,-5,109.543109,59.28136)"/>
<use data-text="c" xlink:href="#font_2_19" transform="matrix(5,0,0,-5,112.418109,59.28136)"/>
<use data-text="a" xlink:href="#font_2_7" transform="matrix(5,0,0,-5,114.7581,59.28136)"/>
<use data-text="t" xlink:href="#font_2_5" transform="matrix(5,0,0,-5,117.4781,59.28136)"/>
<use data-text="i" xlink:href="#font_2_20" transform="matrix(5,0,0,-5,119.283107,59.28136)"/>
<use data-text="o" xlink:href="#font_2_12" transform="matrix(5,0,0,-5,120.6931,59.28136)"/>
<use data-text="n" xlink:href="#font_2_2" transform="matrix(5,0,0,-5,123.613109,59.28136)"/>
<use data-text="T" xlink:href="#font_2_6" transform="matrix(5,0,0,-5,10.7102,53.28136)"/>
<use data-text="a" xlink:href="#font_2_7" transform="matrix(5,0,0,-5,13.0452,53.28136)"/>
<use data-text="r" xlink:href="#font_2_8" transform="matrix(5,0,0,-5,15.765201,53.28136)"/>
<use data-text="g" xlink:href="#font_2_9" transform="matrix(5,0,0,-5,17.620202,53.28136)"/>
<use data-text="e" xlink:href="#font_2_10" transform="matrix(5,0,0,-5,20.140202,53.28136)"/>
<use data-text="t" xlink:href="#font_2_5" transform="matrix(5,0,0,-5,22.865202,53.28136)"/>
<use data-text=" " xlink:href="#font_2_11" transform="matrix(5,0,0,-5,24.670203,53.28136)"/>
<use data-text="p" xlink:href="#font_2_3" transform="matrix(5,0,0,-5,25.995202,53.28136)"/>
<use data-text="o" xlink:href="#font_2_12" transform="matrix(5,0,0,-5,28.965203,53.28136)"/>
<use data-text="s" xlink:href="#font_2_13" transform="matrix(5,0,0,-5,31.8852,53.28136)"/>
<use data-text="e" xlink:href="#font_2_10" transform="matrix(5,0,0,-5,34.220205,53.28136)"/>
<use data-text=" " xlink:href="#font_2_11" transform="matrix(5,0,0,-5,36.9452,53.28136)"/>
<use data-text="l" xlink:href="#font_2_15" transform="matrix(5,0,0,-5,38.270204,53.28136)"/>
<use data-text="i" xlink:href="#font_2_20" transform="matrix(5,0,0,-5,39.735204,53.28136)"/>
<use data-text="e" xlink:href="#font_2_10" transform="matrix(5,0,0,-5,41.145204,53.28136)"/>
<use data-text="s" xlink:href="#font_2_13" transform="matrix(5,0,0,-5,43.870206,53.28136)"/>
<use data-text=" " xlink:href="#font_2_11" transform="matrix(5,0,0,-5,46.205205,53.28136)"/>
<use data-text="o" xlink:href="#font_2_12" transform="matrix(5,0,0,-5,47.530206,53.28136)"/>
<use data-text="n" xlink:href="#font_2_2" transform="matrix(5,0,0,-5,50.450208,53.28136)"/>
<use data-text="&quot;" xlink:href="#font_2_22" transform="matrix(5,0,0,-5,10.6364,59.28136)"/>
<use data-text="i" xlink:href="#font_2_20" transform="matrix(5,0,0,-5,12.6314,59.28136)"/>
<use data-text="m" xlink:href="#font_2_23" transform="matrix(5,0,0,-5,14.041401,59.28136)"/>
<use data-text="p" xlink:href="#font_2_3" transform="matrix(5,0,0,-5,18.3264,59.28136)"/>
<use data-text="l" xlink:href="#font_2_15" transform="matrix(5,0,0,-5,21.296402,59.28136)"/>
<use data-text="i" xlink:href="#font_2_20" transform="matrix(5,0,0,-5,22.761403,59.28136)"/>
<use data-text="c" xlink:href="#font_2_19" transform="matrix(5,0,0,-5,24.171402,59.28136)"/>
<use data-text="i" xlink:href="#font_2_20" transform="matrix(5,0,0,-5,26.561402,59.28136)"/>
<use data-text="t" xlink:href="#font_2_5" transform="matrix(5,0,0,-5,27.971402,59.28136)"/>
<use data-text=" " xlink:href="#font_2_11" transform="matrix(5,0,0,-5,29.776402,59.28136)"/>
<use data-text="t" xlink:href="#font_2_5" transform="matrix(5,0,0,-5,31.101403,59.28136)"/>
<use data-text="i" xlink:href="#font_2_20" transform="matrix(5,0,0,-5,32.906404,59.28136)"/>
<use data-text="m" xlink:href="#font_2_23" transform="matrix(5,0,0,-5,34.316404,59.28136)"/>
<use data-text="e" xlink:href="#font_2_10" transform="matrix(5,0,0,-5,38.601404,59.28136)"/>
<use data-text=" " xlink:href="#font_2_11" transform="matrix(5,0,0,-5,41.3264,59.28136)"/>
<use data-text="a" xlink:href="#font_2_7" transform="matrix(5,0,0,-5,42.651407,59.28136)"/>
<use data-text="x" xlink:href="#font_2_24" transform="matrix(5,0,0,-5,45.371408,59.28136)"/>
<use data-text="i" xlink:href="#font_2_20" transform="matrix(5,0,0,-5,47.796403,59.28136)"/>
<use data-text="s" xlink:href="#font_2_13" transform="matrix(5,0,0,-5,49.206407,59.28136)"/>
<use data-text="&quot;" xlink:href="#font_2_22" transform="matrix(5,0,0,-5,51.4664,59.28136)"/>
<path transform="matrix(1,0,0,-1,0,60.858)" d="M123.266 38.0218V36.6916C123.266 36.3246 122.968 36.0266 122.601 36.0266H120.617C120.25 36.0266 119.952 36.3246 119.952 36.6916V38.0218C119.952 38.3888 120.25 38.6868 120.617 38.6868H122.601C122.968 38.6868 123.266 38.3888 123.266 38.0218Z" fill="#767676" fill-rule="evenodd"/>
<path transform="matrix(1,0,0,-1,0,60.858)" d="M123.266 31.8022V30.472C123.266 30.105 122.968 29.807 122.601 29.807H120.617C120.25 29.807 119.952 30.105 119.952 30.472V31.8022C119.952 32.1692 120.25 32.4672 120.617 32.4672H122.601C122.968 32.4672 123.266 32.1692 123.266 31.8022Z" fill="#ff9b0f" fill-rule="evenodd"/>
<path transform="matrix(1,0,0,-1,0,60.858)" d="M89.7519 17.047 92.8316 16.2975 90.3842 14.2834Z" fill="#2eb134" fill-rule="evenodd"/>
<path transform="matrix(1,0,0,-1,0,60.858)" stroke-width=".63" stroke-linecap="round" stroke-linejoin="round" fill="none" stroke="#2eb134" d="M68.2804 20.9855C74.5098 15.7586 82.2207 14.1403 90.6208 15.7917"/>
</svg>
